<svg width="197" height="125" viewBox="0 0 197 125" fill="none" xmlns="http://www.w3.org/2000/svg">
<path d="M182.071 106.431L182.071 106.431L182.058 106.436C181.278 106.728 180.246 106.894 178.929 106.894C177.042 106.894 175.739 106.49 174.874 105.781L194.952 101.916L195.763 101.76V100.934C195.763 97.3774 194.954 94.2655 193.29 91.6431C191.643 89.0093 189.411 87.0246 186.611 85.7056C183.837 84.3606 180.808 83.6938 177.537 83.6938C173.957 83.6938 170.689 84.4189 167.752 85.8874L167.752 85.8874L167.747 85.8899C164.848 87.3601 162.545 89.433 160.86 92.1034C159.164 94.7511 158.325 97.7629 158.325 101.108C158.325 104.418 159.166 107.428 160.858 110.109C162.55 112.792 164.939 114.884 167.989 116.389L167.989 116.389L167.999 116.393C171.057 117.861 174.574 118.58 178.523 118.58C184.782 118.58 189.704 116.82 193.117 113.158L193.772 112.454L193.096 111.772L186.252 104.87L185.635 104.248L184.937 104.777C183.869 105.588 182.914 106.127 182.071 106.431ZM179.947 95.3493L179.968 95.3652L179.99 95.3801C180.33 95.6116 180.618 95.8846 180.856 96.2036L173.461 97.6405C173.711 96.7841 174.092 96.1479 174.568 95.6888C175.322 94.9989 176.303 94.6258 177.595 94.6258C178.568 94.6258 179.333 94.8811 179.947 95.3493Z" fill="#BAEE7C" stroke="black" stroke-width="2"/>
<path d="M152.119 97.5838H157.615H158.615V96.5838V87.0138V86.0138H157.615H151.786C151.881 85.4696 152.058 85.1247 152.256 84.9128C152.619 84.5254 153.113 84.3018 153.845 84.3018C154.548 84.3018 155.389 84.5015 156.382 84.9628L157.388 85.4299L157.749 84.381L160.881 75.275L161.157 74.474L160.412 74.0705C159.37 73.506 158.106 73.092 156.646 72.8082L156.456 73.7869L156.646 72.8082C155.189 72.5248 153.694 72.3838 152.163 72.3838C147.497 72.3838 143.736 73.6548 141.025 76.3223C138.319 78.9449 137.011 82.4917 137.011 86.8398V117V118H138.011H151.119H152.119V117V97.5838Z" fill="#BAEE7C" stroke="black" stroke-width="2"/>
<path d="M133.2 85.2738V84.2738H132.2H119.092H118.092V85.2738V85.3894C116.19 84.2376 113.812 83.6938 111.03 83.6938C108.077 83.6938 105.334 84.4137 102.821 85.8551C100.329 87.2677 98.3469 89.3206 96.8732 91.9813L96.8732 91.9813L96.8706 91.986C95.4245 94.6305 94.718 97.6814 94.718 101.108C94.718 104.535 95.4246 107.602 96.8675 110.282L96.8675 110.282L96.8732 110.292C98.3462 112.952 100.326 115.021 102.812 116.472L102.821 116.477L102.829 116.481C105.341 117.882 108.081 118.58 111.03 118.58C114.122 118.58 116.719 117.94 118.73 116.581V117V118H119.73H132.2H133.2V117V85.2738ZM118.324 101.108C118.324 102.916 117.883 104.202 117.122 105.088C116.355 105.945 115.395 106.372 114.162 106.372C112.929 106.372 111.97 105.945 111.202 105.088C110.441 104.202 110 102.916 110 101.108C110 99.2926 110.444 98.0343 111.196 97.1919C111.965 96.3309 112.926 95.9018 114.162 95.9018C115.398 95.9018 116.359 96.3309 117.128 97.1919C117.88 98.0343 118.324 99.2926 118.324 101.108Z" fill="#BAEE7C" stroke="black" stroke-width="2"/>
<path d="M64.4245 116.144L64.4245 116.144L64.4323 116.149C68.0304 118.008 72.0572 118.928 76.4915 118.928C80.5541 118.928 84.2161 118.211 87.4578 116.752C90.6985 115.294 93.3838 113.18 95.4978 110.416L96.0608 109.679L95.3694 109.062L86.7274 101.348L85.9364 100.642L85.2778 101.473C82.9141 104.455 80.2257 105.85 77.1875 105.85C74.56 105.85 72.5358 105.026 71.0114 103.436C69.4834 101.804 68.6755 99.5951 68.6755 96.7002C68.6755 93.8021 69.4849 91.6163 71.0078 90.0257L71.0078 90.0258L71.015 90.0181C72.5414 88.3899 74.5645 87.5502 77.1875 87.5502C80.2257 87.5502 82.9141 88.9455 85.2778 91.9274L85.9364 92.7582L86.7274 92.0522L95.3694 84.3382L96.0608 83.721L95.4978 82.9847C93.3838 80.2202 90.6985 78.1066 87.4578 76.6482C84.2161 75.1895 80.5541 74.4722 76.4915 74.4722C72.0554 74.4722 68.027 75.4123 64.4284 77.3118C60.8289 79.1731 57.9853 81.8121 55.9167 85.2192L55.9149 85.2222C53.879 88.6017 52.8715 92.4373 52.8715 96.7002C52.8715 100.963 53.879 104.816 55.9122 108.232L55.9121 108.232L55.9194 108.244C57.9884 111.611 60.8303 114.246 64.4245 116.144Z" fill="#BAEE7C" stroke="black" stroke-width="2"/>
<path d="M194.086 14.2739V13.2739H193.086H179.978H178.978V14.2739V26.8599C178.978 28.9632 178.567 30.3092 177.932 31.0932C177.266 31.8773 176.48 32.2399 175.512 32.2399C174.414 32.2399 173.712 31.88 173.238 31.2479C172.744 30.5888 172.394 29.3191 172.394 27.2079V14.2739V13.2739H171.394H158.286H157.286V14.2739V29.4699C157.286 34.5695 158.541 38.5786 161.227 41.3074L161.227 41.3075L161.233 41.313C163.888 43.9679 167.387 45.2599 171.626 45.2599C174.299 45.2599 176.691 44.6328 178.775 43.368C178.538 44.3592 178.098 45.113 177.497 45.6757L177.491 45.6813L177.485 45.6869C176.597 46.5453 175.035 47.0879 172.554 47.0879C170.967 47.0879 169.269 46.8176 167.455 46.2626C165.683 45.7083 164.246 45.0002 163.12 44.1559L162.156 43.4332L161.623 44.5134L157.215 53.4454L156.825 54.2365L157.561 54.7225C159.607 56.0727 162.036 57.0793 164.831 57.7585C167.663 58.476 170.684 58.8319 173.888 58.8319C180.156 58.8319 185.146 57.2641 188.712 53.9904C192.349 50.7269 194.086 45.8914 194.086 39.6779V14.2739Z" fill="#BAEE7C" stroke="black" stroke-width="2"/>
<path d="M131.729 21.0599V2.96387V1.96387H130.729H117.621H116.621V2.96387V45.9999V46.9999H117.621H130.729H131.729V45.9999V38.9089L132.758 37.7933L139.747 46.6206L140.047 46.9999H140.531H156.365H158.424L157.151 45.3814L143.535 28.0826L156.044 14.964L157.656 13.2739H155.321H139.835H139.417L139.123 13.5712L131.729 21.0599Z" fill="#BAEE7C" stroke="black" stroke-width="2"/>
<path d="M88.8608 45.3887L88.8657 45.3911C91.8801 46.8576 95.2614 47.5798 98.9891 47.5798C103.001 47.5798 106.494 46.7162 109.425 44.9412C112.361 43.1629 114.41 40.6813 115.533 37.5186L115.832 36.6792L115.032 36.2864L104.882 31.2984L103.949 30.84L103.527 31.7897C102.956 33.0754 102.279 33.9645 101.532 34.5309C100.797 35.0873 99.9443 35.3718 98.9311 35.3718C97.6506 35.3718 96.6199 34.937 95.7716 34.0605C94.9958 33.2209 94.5371 31.9535 94.5371 30.1078C94.5371 28.3068 94.9927 27.056 95.7716 26.2131C96.6199 25.3367 97.6506 24.9018 98.9311 24.9018C99.9443 24.9018 100.797 25.1864 101.532 25.7428C102.279 26.3092 102.956 27.1983 103.527 28.484L103.949 29.4337L104.882 28.9753L115.032 23.9873L115.832 23.5945L115.533 22.7551C114.41 19.5924 112.361 17.1108 109.425 15.3325C106.494 13.5575 103.001 12.6938 98.9891 12.6938C95.2614 12.6938 91.8801 13.4161 88.8657 14.8826L88.8657 14.8826L88.8608 14.885C85.8848 16.3526 83.5205 18.424 81.7932 21.0971L81.7932 21.0971L81.7911 21.1004C80.0944 23.7488 79.2551 26.7617 79.2551 30.1078C79.2551 33.4541 80.0944 36.4835 81.7873 39.1674L81.7873 39.1674L81.7932 39.1766C83.5205 41.8497 85.8848 43.9211 88.8608 45.3887Z" fill="#BAEE7C" stroke="black" stroke-width="2"/>
<path d="M77.1231 14.2739V13.2739H76.1231H63.0151H62.0151V14.2739V29.1799C62.0151 31.2832 61.6043 32.6292 60.9695 33.4132C60.3032 34.1973 59.5173 34.5599 58.5491 34.5599C57.451 34.5599 56.7492 34.2001 56.2751 33.5679C55.7807 32.9088 55.4311 31.6391 55.4311 29.5279V14.2739V13.2739H54.4311H41.3231H40.3231V14.2739V31.7899C40.3231 36.8895 41.5782 40.8986 44.2644 43.6274L44.2644 43.6275L44.27 43.633C46.9248 46.2879 50.4244 47.5799 54.6631 47.5799C56.5165 47.5799 58.2793 47.2706 59.9442 46.6463L59.9544 46.6424L59.9645 46.6384C60.9293 46.2525 61.826 45.7617 62.6531 45.167V45.9999V46.9999H63.6531H76.1231H77.1231V45.9999V14.2739Z" fill="#BAEE7C" stroke="black" stroke-width="2"/>
<path d="M6.04822 4.3999H5.04822V5.3999V45.9999V46.9999H6.04822H38.0642H39.0642V45.9999V35.3859V34.3859H38.0642H20.7362V5.3999V4.3999H19.7362H6.04822Z" fill="#BAEE7C" stroke="black" stroke-width="2"/>
<path d="M15.2927 78.5089C18.108 81.3242 18.108 85.8887 15.2927 88.704C12.4774 91.5193 7.91287 91.5193 5.09756 88.704C2.28226 85.8887 2.28226 81.3242 5.09756 78.5089C7.91287 75.6936 12.4774 75.6936 15.2927 78.5089Z" fill="#536F32"/>
<path d="M27.0976 67.0977C29.9129 69.9131 29.9129 74.4776 27.0976 77.2929C24.2823 80.1082 19.7177 80.1082 16.9024 77.2929C14.0871 74.4776 14.0871 69.9131 16.9024 67.0977C19.7177 64.2824 24.2823 64.2824 27.0976 67.0977Z" fill="#536F32"/>
<path d="M27.0976 89.9195C29.9129 92.7348 29.9129 97.2993 27.0976 100.115C24.2823 102.93 19.7177 102.93 16.9024 100.115C14.0871 97.2993 14.0871 92.7348 16.9024 89.9195C19.7177 87.1042 24.2823 87.1042 27.0976 89.9195Z" fill="#536F32"/>
<path d="M38.9024 78.9034C41.7177 81.7187 41.7177 86.2832 38.9024 89.0985C36.0871 91.9138 31.5226 91.9138 28.7073 89.0985C25.892 86.2832 25.892 81.7187 28.7073 78.9034C31.5226 76.0881 36.0871 76.0881 38.9024 78.9034Z" fill="#536F32"/>
<path d="M34.8464 97.4304C36.2607 99.2377 39.0806 104.384 39.5136 109.923C39.9465 115.462 36.5531 121.018 33.0863 123.221" stroke="#536F32" stroke-width="2" stroke-linecap="round"/>
</svg>
